<mxfile host="app.diagrams.net" modified="2024-04-02T02:21:38.737Z" agent="Mozilla/5.0 (Windows NT 10.0; Win64; x64) AppleWebKit/537.36 (KHTML, like Gecko) Chrome/123.0.0.0 Safari/537.36" version="24.2.1" etag="7tdSHGfXCJirg5hX0HdH" type="device">
  <diagram id="tSaY_KCTteVIoRoTBWjR" name="페이지-1">
    <mxGraphModel dx="522" dy="884" grid="1" gridSize="10" guides="1" tooltips="1" connect="1" arrows="1" fold="1" page="1" pageScale="1" pageWidth="690" pageHeight="980" math="0" shadow="0">
      <root>
        <mxCell id="0" />
        <mxCell id="1" parent="0" />
        <mxCell id="T7p-2dDkGv68UtiJKEeO-2" value="traffic" style="rounded=0;whiteSpace=wrap;html=1;" vertex="1" parent="1">
          <mxGeometry x="260" width="70" height="30" as="geometry" />
        </mxCell>
        <mxCell id="T7p-2dDkGv68UtiJKEeO-3" value="type" style="ellipse;whiteSpace=wrap;html=1;" vertex="1" parent="1">
          <mxGeometry x="210" y="60" width="70" height="30" as="geometry" />
        </mxCell>
        <mxCell id="T7p-2dDkGv68UtiJKEeO-4" value="route" style="ellipse;whiteSpace=wrap;html=1;" vertex="1" parent="1">
          <mxGeometry x="280" y="60" width="70" height="30" as="geometry" />
        </mxCell>
        <mxCell id="T7p-2dDkGv68UtiJKEeO-5" value="comment" style="ellipse;whiteSpace=wrap;html=1;" vertex="1" parent="1">
          <mxGeometry x="350" y="60" width="70" height="30" as="geometry" />
        </mxCell>
        <mxCell id="T7p-2dDkGv68UtiJKEeO-6" value="notice" style="rounded=0;whiteSpace=wrap;html=1;" vertex="1" parent="1">
          <mxGeometry x="530" width="80" height="30" as="geometry" />
        </mxCell>
        <mxCell id="T7p-2dDkGv68UtiJKEeO-8" value="title" style="ellipse;whiteSpace=wrap;html=1;" vertex="1" parent="1">
          <mxGeometry x="490" y="55" width="60" height="25" as="geometry" />
        </mxCell>
        <mxCell id="T7p-2dDkGv68UtiJKEeO-9" value="content" style="ellipse;whiteSpace=wrap;html=1;" vertex="1" parent="1">
          <mxGeometry x="550" y="80" width="60" height="25" as="geometry" />
        </mxCell>
        <mxCell id="T7p-2dDkGv68UtiJKEeO-10" value="resdate" style="ellipse;whiteSpace=wrap;html=1;" vertex="1" parent="1">
          <mxGeometry x="590" y="55" width="60" height="25" as="geometry" />
        </mxCell>
        <mxCell id="T7p-2dDkGv68UtiJKEeO-11" value="visited" style="ellipse;whiteSpace=wrap;html=1;" vertex="1" parent="1">
          <mxGeometry x="630" y="30" width="60" height="25" as="geometry" />
        </mxCell>
        <mxCell id="T7p-2dDkGv68UtiJKEeO-72" style="edgeStyle=orthogonalEdgeStyle;rounded=0;orthogonalLoop=1;jettySize=auto;html=1;exitX=0.5;exitY=0;exitDx=0;exitDy=0;entryX=0;entryY=0.5;entryDx=0;entryDy=0;" edge="1" parent="1" source="T7p-2dDkGv68UtiJKEeO-12" target="T7p-2dDkGv68UtiJKEeO-66">
          <mxGeometry relative="1" as="geometry" />
        </mxCell>
        <mxCell id="T7p-2dDkGv68UtiJKEeO-12" value="QnA" style="rounded=0;whiteSpace=wrap;html=1;" vertex="1" parent="1">
          <mxGeometry x="160" y="180" width="90" height="40" as="geometry" />
        </mxCell>
        <mxCell id="T7p-2dDkGv68UtiJKEeO-14" value="title" style="ellipse;whiteSpace=wrap;html=1;" vertex="1" parent="1">
          <mxGeometry x="70" y="265" width="80" height="40" as="geometry" />
        </mxCell>
        <mxCell id="T7p-2dDkGv68UtiJKEeO-15" value="content" style="ellipse;whiteSpace=wrap;html=1;" vertex="1" parent="1">
          <mxGeometry x="125" y="300" width="80" height="40" as="geometry" />
        </mxCell>
        <mxCell id="T7p-2dDkGv68UtiJKEeO-16" value="resdate" style="ellipse;whiteSpace=wrap;html=1;" vertex="1" parent="1">
          <mxGeometry x="205" y="300" width="80" height="40" as="geometry" />
        </mxCell>
        <mxCell id="T7p-2dDkGv68UtiJKEeO-17" value="visited" style="ellipse;whiteSpace=wrap;html=1;" vertex="1" parent="1">
          <mxGeometry x="240" y="260" width="80" height="40" as="geometry" />
        </mxCell>
        <mxCell id="T7p-2dDkGv68UtiJKEeO-18" value="user(왜래)" style="ellipse;whiteSpace=wrap;html=1;" vertex="1" parent="1">
          <mxGeometry x="265" y="220" width="80" height="40" as="geometry" />
        </mxCell>
        <mxCell id="T7p-2dDkGv68UtiJKEeO-69" style="edgeStyle=orthogonalEdgeStyle;rounded=0;orthogonalLoop=1;jettySize=auto;html=1;exitX=0.5;exitY=0;exitDx=0;exitDy=0;entryX=1;entryY=0.5;entryDx=0;entryDy=0;" edge="1" parent="1" source="T7p-2dDkGv68UtiJKEeO-19" target="T7p-2dDkGv68UtiJKEeO-66">
          <mxGeometry relative="1" as="geometry" />
        </mxCell>
        <mxCell id="T7p-2dDkGv68UtiJKEeO-19" value="user" style="rounded=0;whiteSpace=wrap;html=1;" vertex="1" parent="1">
          <mxGeometry x="522.5" y="180" width="90" height="40" as="geometry" />
        </mxCell>
        <mxCell id="T7p-2dDkGv68UtiJKEeO-20" value="id(PK)" style="ellipse;whiteSpace=wrap;html=1;fontColor=#CC0000;" vertex="1" parent="1">
          <mxGeometry x="430" y="220" width="60" height="35" as="geometry" />
        </mxCell>
        <mxCell id="T7p-2dDkGv68UtiJKEeO-23" value="resdate&lt;div style=&quot;font-size: 9px;&quot;&gt;(등록날짜)&lt;/div&gt;" style="ellipse;whiteSpace=wrap;html=1;fontSize=9;" vertex="1" parent="1">
          <mxGeometry x="430" y="262.5" width="60" height="35" as="geometry" />
        </mxCell>
        <mxCell id="T7p-2dDkGv68UtiJKEeO-24" value="email" style="ellipse;whiteSpace=wrap;html=1;" vertex="1" parent="1">
          <mxGeometry x="490" y="290" width="60" height="35" as="geometry" />
        </mxCell>
        <mxCell id="T7p-2dDkGv68UtiJKEeO-25" value="pw" style="ellipse;whiteSpace=wrap;html=1;" vertex="1" parent="1">
          <mxGeometry x="552.5" y="300" width="60" height="35" as="geometry" />
        </mxCell>
        <mxCell id="T7p-2dDkGv68UtiJKEeO-26" value="QnA&lt;div&gt;(외래)&lt;/div&gt;" style="ellipse;whiteSpace=wrap;html=1;" vertex="1" parent="1">
          <mxGeometry x="600" y="267.5" width="65" height="35" as="geometry" />
        </mxCell>
        <mxCell id="T7p-2dDkGv68UtiJKEeO-27" value="manager" style="rounded=0;whiteSpace=wrap;html=1;" vertex="1" parent="1">
          <mxGeometry x="465" y="420" width="85" height="30" as="geometry" />
        </mxCell>
        <mxCell id="T7p-2dDkGv68UtiJKEeO-29" value="resdate&lt;div style=&quot;font-size: 9px;&quot;&gt;(등록날짜)&lt;/div&gt;" style="ellipse;whiteSpace=wrap;html=1;fontSize=9;" vertex="1" parent="1">
          <mxGeometry x="440" y="490" width="60" height="35" as="geometry" />
        </mxCell>
        <mxCell id="T7p-2dDkGv68UtiJKEeO-30" value="email" style="ellipse;whiteSpace=wrap;html=1;" vertex="1" parent="1">
          <mxGeometry x="500" y="500" width="60" height="35" as="geometry" />
        </mxCell>
        <mxCell id="T7p-2dDkGv68UtiJKEeO-31" value="pw" style="ellipse;whiteSpace=wrap;html=1;" vertex="1" parent="1">
          <mxGeometry x="575" y="500" width="60" height="35" as="geometry" />
        </mxCell>
        <mxCell id="T7p-2dDkGv68UtiJKEeO-33" value="id(PK)" style="ellipse;whiteSpace=wrap;html=1;fontColor=#CC0000;" vertex="1" parent="1">
          <mxGeometry x="380" y="465" width="60" height="35" as="geometry" />
        </mxCell>
        <mxCell id="T7p-2dDkGv68UtiJKEeO-34" value="id(PK)" style="ellipse;whiteSpace=wrap;html=1;fontColor=#CC0000;" vertex="1" parent="1">
          <mxGeometry x="70" y="220" width="60" height="35" as="geometry" />
        </mxCell>
        <mxCell id="T7p-2dDkGv68UtiJKEeO-35" value="id(PK)" style="ellipse;whiteSpace=wrap;html=1;fontColor=#CC0000;" vertex="1" parent="1">
          <mxGeometry x="450" y="20" width="60" height="35" as="geometry" />
        </mxCell>
        <mxCell id="T7p-2dDkGv68UtiJKEeO-36" value="id(PK)" style="ellipse;whiteSpace=wrap;html=1;fontColor=#CC0000;" vertex="1" parent="1">
          <mxGeometry x="150" y="30" width="60" height="35" as="geometry" />
        </mxCell>
        <mxCell id="T7p-2dDkGv68UtiJKEeO-37" value="" style="endArrow=classic;html=1;rounded=0;exitX=0.5;exitY=1;exitDx=0;exitDy=0;entryX=1;entryY=0;entryDx=0;entryDy=0;" edge="1" parent="1" source="T7p-2dDkGv68UtiJKEeO-27" target="T7p-2dDkGv68UtiJKEeO-33">
          <mxGeometry width="50" height="50" relative="1" as="geometry">
            <mxPoint x="460" y="402.5" as="sourcePoint" />
            <mxPoint x="385" y="420" as="targetPoint" />
          </mxGeometry>
        </mxCell>
        <mxCell id="T7p-2dDkGv68UtiJKEeO-38" value="" style="endArrow=classic;html=1;rounded=0;exitX=0.5;exitY=1;exitDx=0;exitDy=0;entryX=0.5;entryY=0;entryDx=0;entryDy=0;" edge="1" parent="1" source="T7p-2dDkGv68UtiJKEeO-2" target="T7p-2dDkGv68UtiJKEeO-3">
          <mxGeometry width="50" height="50" relative="1" as="geometry">
            <mxPoint x="306" y="41.5" as="sourcePoint" />
            <mxPoint x="230" y="55.5" as="targetPoint" />
          </mxGeometry>
        </mxCell>
        <mxCell id="T7p-2dDkGv68UtiJKEeO-39" value="" style="endArrow=classic;html=1;rounded=0;exitX=0.5;exitY=1;exitDx=0;exitDy=0;entryX=0.5;entryY=0;entryDx=0;entryDy=0;" edge="1" parent="1" source="T7p-2dDkGv68UtiJKEeO-2" target="T7p-2dDkGv68UtiJKEeO-4">
          <mxGeometry width="50" height="50" relative="1" as="geometry">
            <mxPoint x="330" y="32.5" as="sourcePoint" />
            <mxPoint x="280" y="62.5" as="targetPoint" />
          </mxGeometry>
        </mxCell>
        <mxCell id="T7p-2dDkGv68UtiJKEeO-40" value="" style="endArrow=classic;html=1;rounded=0;exitX=0.5;exitY=1;exitDx=0;exitDy=0;entryX=0.294;entryY=-0.043;entryDx=0;entryDy=0;entryPerimeter=0;" edge="1" parent="1" source="T7p-2dDkGv68UtiJKEeO-2" target="T7p-2dDkGv68UtiJKEeO-5">
          <mxGeometry width="50" height="50" relative="1" as="geometry">
            <mxPoint x="325" y="27.5" as="sourcePoint" />
            <mxPoint x="345" y="57.5" as="targetPoint" />
          </mxGeometry>
        </mxCell>
        <mxCell id="T7p-2dDkGv68UtiJKEeO-41" value="" style="endArrow=classic;html=1;rounded=0;exitX=0.5;exitY=1;exitDx=0;exitDy=0;entryX=1;entryY=0;entryDx=0;entryDy=0;" edge="1" parent="1" source="T7p-2dDkGv68UtiJKEeO-6" target="T7p-2dDkGv68UtiJKEeO-35">
          <mxGeometry width="50" height="50" relative="1" as="geometry">
            <mxPoint x="435" y="12.5" as="sourcePoint" />
            <mxPoint x="350" y="30.5" as="targetPoint" />
          </mxGeometry>
        </mxCell>
        <mxCell id="T7p-2dDkGv68UtiJKEeO-42" value="" style="endArrow=classic;html=1;rounded=0;exitX=0.5;exitY=1;exitDx=0;exitDy=0;entryX=0.5;entryY=0;entryDx=0;entryDy=0;" edge="1" parent="1" source="T7p-2dDkGv68UtiJKEeO-6" target="T7p-2dDkGv68UtiJKEeO-8">
          <mxGeometry width="50" height="50" relative="1" as="geometry">
            <mxPoint x="578.79" y="39.94" as="sourcePoint" />
            <mxPoint x="509.79" y="34.94" as="targetPoint" />
          </mxGeometry>
        </mxCell>
        <mxCell id="T7p-2dDkGv68UtiJKEeO-43" value="" style="endArrow=classic;html=1;rounded=0;exitX=0.5;exitY=1;exitDx=0;exitDy=0;entryX=0.5;entryY=0;entryDx=0;entryDy=0;entryPerimeter=0;" edge="1" parent="1" source="T7p-2dDkGv68UtiJKEeO-6" target="T7p-2dDkGv68UtiJKEeO-9">
          <mxGeometry width="50" height="50" relative="1" as="geometry">
            <mxPoint x="590" y="35" as="sourcePoint" />
            <mxPoint x="540" y="60" as="targetPoint" />
          </mxGeometry>
        </mxCell>
        <mxCell id="T7p-2dDkGv68UtiJKEeO-44" value="" style="endArrow=classic;html=1;rounded=0;exitX=0.5;exitY=1;exitDx=0;exitDy=0;entryX=0.278;entryY=-0.037;entryDx=0;entryDy=0;entryPerimeter=0;" edge="1" parent="1" source="T7p-2dDkGv68UtiJKEeO-6" target="T7p-2dDkGv68UtiJKEeO-10">
          <mxGeometry width="50" height="50" relative="1" as="geometry">
            <mxPoint x="590" y="30" as="sourcePoint" />
            <mxPoint x="600" y="80" as="targetPoint" />
          </mxGeometry>
        </mxCell>
        <mxCell id="T7p-2dDkGv68UtiJKEeO-45" value="" style="endArrow=classic;html=1;rounded=0;exitX=0.5;exitY=1;exitDx=0;exitDy=0;entryX=0;entryY=0.5;entryDx=0;entryDy=0;" edge="1" parent="1" source="T7p-2dDkGv68UtiJKEeO-6" target="T7p-2dDkGv68UtiJKEeO-11">
          <mxGeometry width="50" height="50" relative="1" as="geometry">
            <mxPoint x="613.32" y="5.93" as="sourcePoint" />
            <mxPoint x="650.32" y="29.93" as="targetPoint" />
          </mxGeometry>
        </mxCell>
        <mxCell id="T7p-2dDkGv68UtiJKEeO-46" value="" style="endArrow=classic;html=1;rounded=0;exitX=0.5;exitY=1;exitDx=0;exitDy=0;entryX=1;entryY=0;entryDx=0;entryDy=0;" edge="1" parent="1" source="T7p-2dDkGv68UtiJKEeO-12" target="T7p-2dDkGv68UtiJKEeO-14">
          <mxGeometry width="50" height="50" relative="1" as="geometry">
            <mxPoint x="225" y="237.5" as="sourcePoint" />
            <mxPoint x="150" y="255.5" as="targetPoint" />
          </mxGeometry>
        </mxCell>
        <mxCell id="T7p-2dDkGv68UtiJKEeO-47" value="" style="endArrow=classic;html=1;rounded=0;exitX=0.5;exitY=1;exitDx=0;exitDy=0;entryX=0.5;entryY=0;entryDx=0;entryDy=0;" edge="1" parent="1" source="T7p-2dDkGv68UtiJKEeO-12" target="T7p-2dDkGv68UtiJKEeO-15">
          <mxGeometry width="50" height="50" relative="1" as="geometry">
            <mxPoint x="219.8" y="227.78" as="sourcePoint" />
            <mxPoint x="159.8" y="276.78" as="targetPoint" />
          </mxGeometry>
        </mxCell>
        <mxCell id="T7p-2dDkGv68UtiJKEeO-48" value="" style="endArrow=classic;html=1;rounded=0;exitX=0.5;exitY=1;exitDx=0;exitDy=0;entryX=0.236;entryY=-0.046;entryDx=0;entryDy=0;entryPerimeter=0;" edge="1" parent="1" source="T7p-2dDkGv68UtiJKEeO-12" target="T7p-2dDkGv68UtiJKEeO-16">
          <mxGeometry width="50" height="50" relative="1" as="geometry">
            <mxPoint x="225" y="220" as="sourcePoint" />
            <mxPoint x="185" y="300" as="targetPoint" />
          </mxGeometry>
        </mxCell>
        <mxCell id="T7p-2dDkGv68UtiJKEeO-49" value="" style="endArrow=classic;html=1;rounded=0;exitX=0.5;exitY=1;exitDx=0;exitDy=0;entryX=0.03;entryY=0.305;entryDx=0;entryDy=0;entryPerimeter=0;" edge="1" parent="1" source="T7p-2dDkGv68UtiJKEeO-12" target="T7p-2dDkGv68UtiJKEeO-17">
          <mxGeometry width="50" height="50" relative="1" as="geometry">
            <mxPoint x="231.12" y="220" as="sourcePoint" />
            <mxPoint x="250.12" y="298" as="targetPoint" />
          </mxGeometry>
        </mxCell>
        <mxCell id="T7p-2dDkGv68UtiJKEeO-50" value="" style="endArrow=classic;html=1;rounded=0;exitX=0.5;exitY=1;exitDx=0;exitDy=0;entryX=0;entryY=0.5;entryDx=0;entryDy=0;" edge="1" parent="1" source="T7p-2dDkGv68UtiJKEeO-12" target="T7p-2dDkGv68UtiJKEeO-18">
          <mxGeometry width="50" height="50" relative="1" as="geometry">
            <mxPoint x="240" y="213.9" as="sourcePoint" />
            <mxPoint x="277" y="265.9" as="targetPoint" />
          </mxGeometry>
        </mxCell>
        <mxCell id="T7p-2dDkGv68UtiJKEeO-51" value="" style="endArrow=classic;html=1;rounded=0;exitX=0.5;exitY=1;exitDx=0;exitDy=0;entryX=1.006;entryY=0.344;entryDx=0;entryDy=0;entryPerimeter=0;" edge="1" parent="1" source="T7p-2dDkGv68UtiJKEeO-19" target="T7p-2dDkGv68UtiJKEeO-20">
          <mxGeometry width="50" height="50" relative="1" as="geometry">
            <mxPoint x="397.5" y="180" as="sourcePoint" />
            <mxPoint x="457.5" y="200" as="targetPoint" />
          </mxGeometry>
        </mxCell>
        <mxCell id="T7p-2dDkGv68UtiJKEeO-52" value="" style="endArrow=classic;html=1;rounded=0;exitX=0.5;exitY=1;exitDx=0;exitDy=0;entryX=0.744;entryY=0.1;entryDx=0;entryDy=0;entryPerimeter=0;" edge="1" parent="1" source="T7p-2dDkGv68UtiJKEeO-19" target="T7p-2dDkGv68UtiJKEeO-23">
          <mxGeometry width="50" height="50" relative="1" as="geometry">
            <mxPoint x="582.5" y="231.48" as="sourcePoint" />
            <mxPoint x="512.5" y="248.48" as="targetPoint" />
          </mxGeometry>
        </mxCell>
        <mxCell id="T7p-2dDkGv68UtiJKEeO-53" value="" style="endArrow=classic;html=1;rounded=0;exitX=0.5;exitY=1;exitDx=0;exitDy=0;entryX=0.417;entryY=0.143;entryDx=0;entryDy=0;entryPerimeter=0;" edge="1" parent="1" source="T7p-2dDkGv68UtiJKEeO-19" target="T7p-2dDkGv68UtiJKEeO-24">
          <mxGeometry width="50" height="50" relative="1" as="geometry">
            <mxPoint x="597.86" y="220" as="sourcePoint" />
            <mxPoint x="537.86" y="269" as="targetPoint" />
          </mxGeometry>
        </mxCell>
        <mxCell id="T7p-2dDkGv68UtiJKEeO-54" value="" style="endArrow=classic;html=1;rounded=0;exitX=0.5;exitY=1;exitDx=0;exitDy=0;entryX=0;entryY=0;entryDx=0;entryDy=0;" edge="1" parent="1" source="T7p-2dDkGv68UtiJKEeO-19" target="T7p-2dDkGv68UtiJKEeO-25">
          <mxGeometry width="50" height="50" relative="1" as="geometry">
            <mxPoint x="602.48" y="220" as="sourcePoint" />
            <mxPoint x="582.48" y="280" as="targetPoint" />
          </mxGeometry>
        </mxCell>
        <mxCell id="T7p-2dDkGv68UtiJKEeO-55" value="" style="endArrow=classic;html=1;rounded=0;exitX=0.5;exitY=1;exitDx=0;exitDy=0;entryX=0.034;entryY=0.323;entryDx=0;entryDy=0;entryPerimeter=0;" edge="1" parent="1" source="T7p-2dDkGv68UtiJKEeO-19" target="T7p-2dDkGv68UtiJKEeO-26">
          <mxGeometry width="50" height="50" relative="1" as="geometry">
            <mxPoint x="633.11" y="199.87" as="sourcePoint" />
            <mxPoint x="662.11" y="259.87" as="targetPoint" />
          </mxGeometry>
        </mxCell>
        <mxCell id="T7p-2dDkGv68UtiJKEeO-56" value="" style="endArrow=classic;html=1;rounded=0;exitX=0.5;exitY=1;exitDx=0;exitDy=0;entryX=0.5;entryY=0;entryDx=0;entryDy=0;" edge="1" parent="1" source="T7p-2dDkGv68UtiJKEeO-27" target="T7p-2dDkGv68UtiJKEeO-29">
          <mxGeometry width="50" height="50" relative="1" as="geometry">
            <mxPoint x="533.64" y="460" as="sourcePoint" />
            <mxPoint x="456.64" y="480" as="targetPoint" />
          </mxGeometry>
        </mxCell>
        <mxCell id="T7p-2dDkGv68UtiJKEeO-57" value="" style="endArrow=classic;html=1;rounded=0;exitX=0.5;exitY=1;exitDx=0;exitDy=0;entryX=0.5;entryY=0;entryDx=0;entryDy=0;" edge="1" parent="1" source="T7p-2dDkGv68UtiJKEeO-27" target="T7p-2dDkGv68UtiJKEeO-30">
          <mxGeometry width="50" height="50" relative="1" as="geometry">
            <mxPoint x="529.25" y="455" as="sourcePoint" />
            <mxPoint x="491.25" y="495" as="targetPoint" />
          </mxGeometry>
        </mxCell>
        <mxCell id="T7p-2dDkGv68UtiJKEeO-58" value="" style="endArrow=classic;html=1;rounded=0;exitX=0.5;exitY=1;exitDx=0;exitDy=0;entryX=0.046;entryY=0.333;entryDx=0;entryDy=0;entryPerimeter=0;" edge="1" parent="1" source="T7p-2dDkGv68UtiJKEeO-27" target="T7p-2dDkGv68UtiJKEeO-31">
          <mxGeometry width="50" height="50" relative="1" as="geometry">
            <mxPoint x="580.5" y="410" as="sourcePoint" />
            <mxPoint x="602.5" y="460" as="targetPoint" />
          </mxGeometry>
        </mxCell>
        <mxCell id="T7p-2dDkGv68UtiJKEeO-59" value="" style="endArrow=classic;html=1;rounded=0;exitX=0.5;exitY=1;exitDx=0;exitDy=0;entryX=1;entryY=0;entryDx=0;entryDy=0;" edge="1" parent="1" source="T7p-2dDkGv68UtiJKEeO-2" target="T7p-2dDkGv68UtiJKEeO-36">
          <mxGeometry width="50" height="50" relative="1" as="geometry">
            <mxPoint x="260" as="sourcePoint" />
            <mxPoint x="210" y="30" as="targetPoint" />
          </mxGeometry>
        </mxCell>
        <mxCell id="T7p-2dDkGv68UtiJKEeO-60" value="" style="endArrow=classic;html=1;rounded=0;exitX=0.5;exitY=1;exitDx=0;exitDy=0;entryX=0.982;entryY=0.259;entryDx=0;entryDy=0;entryPerimeter=0;" edge="1" parent="1" source="T7p-2dDkGv68UtiJKEeO-12" target="T7p-2dDkGv68UtiJKEeO-34">
          <mxGeometry width="50" height="50" relative="1" as="geometry">
            <mxPoint x="233.79" y="130" as="sourcePoint" />
            <mxPoint x="139.79" y="135" as="targetPoint" />
          </mxGeometry>
        </mxCell>
        <mxCell id="T7p-2dDkGv68UtiJKEeO-61" value="name" style="ellipse;whiteSpace=wrap;html=1;" vertex="1" parent="1">
          <mxGeometry x="625" y="232.5" width="65" height="35" as="geometry" />
        </mxCell>
        <mxCell id="T7p-2dDkGv68UtiJKEeO-63" value="" style="endArrow=classic;html=1;rounded=0;exitX=0.5;exitY=1;exitDx=0;exitDy=0;entryX=0.06;entryY=0.325;entryDx=0;entryDy=0;entryPerimeter=0;" edge="1" parent="1" source="T7p-2dDkGv68UtiJKEeO-19" target="T7p-2dDkGv68UtiJKEeO-61">
          <mxGeometry width="50" height="50" relative="1" as="geometry">
            <mxPoint x="595.79" y="208.69" as="sourcePoint" />
            <mxPoint x="629.79" y="267.69" as="targetPoint" />
          </mxGeometry>
        </mxCell>
        <mxCell id="T7p-2dDkGv68UtiJKEeO-64" value="name" style="ellipse;whiteSpace=wrap;html=1;" vertex="1" parent="1">
          <mxGeometry x="582.5" y="465" width="65" height="35" as="geometry" />
        </mxCell>
        <mxCell id="T7p-2dDkGv68UtiJKEeO-65" value="" style="endArrow=classic;html=1;rounded=0;exitX=0.5;exitY=1;exitDx=0;exitDy=0;entryX=0.037;entryY=0.333;entryDx=0;entryDy=0;entryPerimeter=0;" edge="1" parent="1" source="T7p-2dDkGv68UtiJKEeO-27" target="T7p-2dDkGv68UtiJKEeO-64">
          <mxGeometry width="50" height="50" relative="1" as="geometry">
            <mxPoint x="562.5" y="388.34000000000003" as="sourcePoint" />
            <mxPoint x="632.5" y="450.34000000000003" as="targetPoint" />
          </mxGeometry>
        </mxCell>
        <mxCell id="T7p-2dDkGv68UtiJKEeO-66" value="등록" style="rhombus;whiteSpace=wrap;html=1;" vertex="1" parent="1">
          <mxGeometry x="362.5" y="130" width="57.5" height="60" as="geometry" />
        </mxCell>
        <mxCell id="T7p-2dDkGv68UtiJKEeO-73" value="n" style="text;strokeColor=none;fillColor=none;align=left;verticalAlign=middle;spacingLeft=4;spacingRight=4;overflow=hidden;points=[[0,0.5],[1,0.5]];portConstraint=eastwest;rotatable=0;whiteSpace=wrap;html=1;" vertex="1" parent="1">
          <mxGeometry x="345" y="120" width="25" height="30" as="geometry" />
        </mxCell>
        <mxCell id="T7p-2dDkGv68UtiJKEeO-74" value="1" style="text;strokeColor=none;fillColor=none;align=left;verticalAlign=middle;spacingLeft=4;spacingRight=4;overflow=hidden;points=[[0,0.5],[1,0.5]];portConstraint=eastwest;rotatable=0;whiteSpace=wrap;html=1;" vertex="1" parent="1">
          <mxGeometry x="420" y="120" width="25" height="30" as="geometry" />
        </mxCell>
        <mxCell id="T7p-2dDkGv68UtiJKEeO-75" value="datas" style="rounded=0;whiteSpace=wrap;html=1;" vertex="1" parent="1">
          <mxGeometry x="160" y="380" width="90" height="30" as="geometry" />
        </mxCell>
        <mxCell id="T7p-2dDkGv68UtiJKEeO-76" value="path" style="ellipse;whiteSpace=wrap;html=1;" vertex="1" parent="1">
          <mxGeometry x="190" y="470" width="70" height="40" as="geometry" />
        </mxCell>
        <mxCell id="T7p-2dDkGv68UtiJKEeO-77" value="id(PK)" style="ellipse;whiteSpace=wrap;html=1;fontColor=#CC0000;" vertex="1" parent="1">
          <mxGeometry x="100" y="455" width="60" height="35" as="geometry" />
        </mxCell>
        <mxCell id="T7p-2dDkGv68UtiJKEeO-78" value="" style="endArrow=classic;html=1;rounded=0;exitX=0.5;exitY=1;exitDx=0;exitDy=0;entryX=0.5;entryY=0;entryDx=0;entryDy=0;" edge="1" parent="1" source="T7p-2dDkGv68UtiJKEeO-75" target="T7p-2dDkGv68UtiJKEeO-77">
          <mxGeometry width="50" height="50" relative="1" as="geometry">
            <mxPoint x="330" y="410" as="sourcePoint" />
            <mxPoint x="380" y="360" as="targetPoint" />
          </mxGeometry>
        </mxCell>
        <mxCell id="T7p-2dDkGv68UtiJKEeO-79" value="" style="endArrow=classic;html=1;rounded=0;exitX=0.5;exitY=1;exitDx=0;exitDy=0;entryX=0.5;entryY=0;entryDx=0;entryDy=0;" edge="1" parent="1" source="T7p-2dDkGv68UtiJKEeO-75" target="T7p-2dDkGv68UtiJKEeO-76">
          <mxGeometry width="50" height="50" relative="1" as="geometry">
            <mxPoint x="330" y="410" as="sourcePoint" />
            <mxPoint x="380" y="360" as="targetPoint" />
          </mxGeometry>
        </mxCell>
      </root>
    </mxGraphModel>
  </diagram>
</mxfile>
